HIERARCHY
ROOT root
{
	OFFSET 0.000000 0.000000 0.000000
	CHANNELS 6 Xposition Yposition Zposition Zrotation Yrotation Xrotation
	JOINT lhip
	{
		OFFSET 0.058581 -0.082280 -0.017664
		CHANNELS 3 Zrotation Yrotation Xrotation
		JOINT lknee
		{
			OFFSET 0.043451 -0.386469 0.008037
			CHANNELS 3 Zrotation Yrotation Xrotation
			JOINT lankle
			{
				OFFSET -0.014790 -0.426874 -0.037428
				CHANNELS 3 Zrotation Yrotation Xrotation
				JOINT ltoe
				{
					OFFSET 0.041054 -0.060286 0.122042
					CHANNELS 3 Zrotation Yrotation Xrotation
					End Site
					{
						OFFSET 0.000000 0.000000 0.000000
					}
				}
			}
		}
	}
	JOINT rhip
	{
		OFFSET -0.060310 -0.090513 -0.013543
		CHANNELS 3 Zrotation Yrotation Xrotation
		JOINT rknee
		{
			OFFSET -0.043257 -0.383688 -0.004843
			CHANNELS 3 Zrotation Yrotation Xrotation
			JOINT rankle
			{
				OFFSET 0.019056 -0.420046 -0.034562
				CHANNELS 3 Zrotation Yrotation Xrotation
				JOINT rtoe
				{
					OFFSET -0.034840 -0.062106 0.130323
					CHANNELS 3 Zrotation Yrotation Xrotation
					End Site
					{
						OFFSET 0.000000 0.000000 0.000000
					}
				}
			}
		}
	}
	JOINT lowerback
	{
		OFFSET 0.004439 0.124404 -0.038385
		CHANNELS 3 Zrotation Yrotation Xrotation
		JOINT upperback
		{
			OFFSET 0.004488 0.137956 0.026820
			CHANNELS 3 Zrotation Yrotation Xrotation
			JOINT chest
			{
				OFFSET -0.002265 0.056032 0.002855
				CHANNELS 3 Zrotation Yrotation Xrotation
				JOINT lowerneck
				{
					OFFSET -0.013390 0.211636 -0.033468
					CHANNELS 3 Zrotation Yrotation Xrotation
					JOINT upperneck
					{
						OFFSET 0.010113 0.088937 0.050410
						CHANNELS 3 Zrotation Yrotation Xrotation
						End Site
						{
							OFFSET 0.000000 0.000000 0.000000
						}
					}
				}
				JOINT lclavicle
				{
					OFFSET 0.071702 0.114000 -0.018898
					CHANNELS 3 Zrotation Yrotation Xrotation
					JOINT lshoulder
					{
						OFFSET 0.122921 0.045205 -0.019046
						CHANNELS 3 Zrotation Yrotation Xrotation
						JOINT lelbow
						{
							OFFSET 0.255332 -0.015649 -0.022946
							CHANNELS 3 Zrotation Yrotation Xrotation
							JOINT lwrist
							{
								OFFSET 0.265709 0.012698 -0.007375
								CHANNELS 3 Zrotation Yrotation Xrotation
								End Site
								{
									OFFSET 0.000000 0.000000 0.000000
								}
							}
						}
					}
				}
				JOINT rclavicle
				{
					OFFSET -0.082954 0.112472 -0.023707
					CHANNELS 3 Zrotation Yrotation Xrotation
					JOINT rshoulder
					{
						OFFSET -0.113228 0.046853 -0.008472
						CHANNELS 3 Zrotation Yrotation Xrotation
						JOINT relbow
						{
							OFFSET -0.260127 -0.014369 -0.031269
							CHANNELS 3 Zrotation Yrotation Xrotation
							JOINT rwrist
							{
								OFFSET -0.269108 0.006794 -0.006027
								CHANNELS 3 Zrotation Yrotation Xrotation
								End Site
								{
									OFFSET 0.000000 0.000000 0.000000
								}
							}
						}
					}
				}
			}
		}
	}
}
MOTION
Frames: 8
Frame Time: 0.033333
0.381091 0.204330 0.956235 70.283518 2.149170 88.930199 7.651380 7.038383 -9.972100 -7.579465 0.003937 34.073351 1.230326 12.247993 -19.724813 0.000000 -0.000000 0.000000 -14.196129 -10.441576 -20.031949 12.765727 -1.610761 37.268149 6.514399 7.367149 -13.892327 0.000000 -0.000000 0.000000 -3.460053 3.874212 6.070548 1.903846 -3.543098 26.266190 -1.516879 2.576463 -14.241903 -9.670753 -7.472445 18.214048 10.420781 -9.727875 -0.863084 -17.564341 -29.628763 9.877237 -63.419678 -34.648112 32.733043 -6.861144 -12.527348 24.367686 -20.355553 -9.841476 21.993842 13.962446 26.099470 12.615618 32.622224 23.738583 -0.507185 -9.954065 17.067289 -9.400847 3.816315 10.514272 -3.985422 
0.381089 0.210725 0.957242 68.491132 2.393881 88.533900 7.223398 7.143451 -9.098887 -6.933713 0.686024 33.414094 1.321437 13.038184 -20.280044 0.000000 -0.000000 0.000000 -13.956894 -10.241158 -20.134452 12.809459 -0.784782 36.754532 6.727211 7.486929 -13.097314 0.000000 -0.000000 0.000000 -3.504268 3.424412 6.157917 1.642861 -3.857027 26.228816 -1.700795 2.675818 -14.118411 -10.304331 -8.928037 18.875676 11.350875 -9.448141 -1.151418 -18.068926 -30.379383 9.734624 -64.736575 -35.639162 34.375976 -7.374484 -13.380957 24.142872 -20.162713 -9.963254 21.890860 12.241899 25.083889 11.409010 29.603301 22.063354 -2.601530 -9.922935 16.404972 -10.400655 4.605108 10.840113 -3.481022 
0.381130 0.216453 0.958543 66.754712 2.679678 88.088947 6.969200 7.373367 -8.174669 -6.350560 1.386612 32.731574 1.364684 13.628761 -20.679033 0.000000 -0.000000 0.000000 -13.554499 -9.921740 -20.146422 12.773164 0.087766 36.233772 6.901992 7.421277 -12.349438 0.000000 -0.000000 0.000000 -3.398068 2.898469 6.127474 1.233365 -4.175649 26.170773 -1.989906 2.670638 -13.675565 -10.384872 -9.747227 19.644517 12.217985 -9.335631 -1.767211 -18.308773 -31.018398 9.320978 -65.366564 -35.975499 35.719524 -7.916359 -15.663622 24.469510 -20.223153 -9.891473 21.753681 10.506306 24.584781 10.357399 27.270892 20.581229 -3.713332 -10.875365 15.692617 -11.741609 4.985607 10.759637 -3.951270 
0.381172 0.221566 0.960013 65.151094 2.881383 87.692351 6.879462 7.743774 -7.419924 -6.112294 2.087866 32.249657 1.317791 13.925035 -20.958379 0.000000 -0.000000 0.000000 -13.229955 -9.739108 -20.183758 12.635709 0.755407 35.775469 7.159551 7.298098 -11.617846 0.000000 -0.000000 0.000000 -3.480194 2.416639 6.353448 0.918050 -4.417094 25.791076 -2.136524 2.540528 -13.392933 -10.378954 -10.753395 20.698696 12.783060 -8.992712 -2.532612 -18.390348 -30.951145 9.135202 -65.756110 -36.355639 36.748932 -8.544533 -19.194215 26.157312 -20.329518 -9.673584 22.848131 8.671505 23.643032 9.463601 25.288979 19.736035 -4.806237 -11.872266 15.245191 -12.714413 5.856804 10.542372 -4.733991 
0.381371 0.226142 0.961699 63.564115 2.939966 87.145553 6.851164 8.260579 -6.497769 -6.100985 2.842829 31.756116 1.275057 14.193510 -21.118287 0.000000 -0.000000 0.000000 -13.136836 -9.802602 -20.087332 12.643778 1.251430 35.409184 6.949476 6.971788 -11.224709 0.000000 -0.000000 0.000000 -3.721854 2.063141 6.649191 0.567641 -4.526220 25.215934 -2.326463 2.538650 -12.831762 -10.264797 -11.788519 21.724977 13.602173 -8.912499 -3.058773 -18.247323 -31.259433 9.041577 -65.984802 -37.112367 37.652458 -10.061391 -21.910741 26.203522 -19.470092 -10.236577 21.512245 6.816657 22.955457 8.458711 23.465954 18.710293 -6.186289 -12.295162 14.525141 -13.901870 6.049263 10.614208 -4.554015 
0.381594 0.230434 0.963269 62.033390 2.972577 86.655582 6.855940 8.820681 -5.644271 -6.039098 3.795835 31.259631 1.295922 14.261768 -21.303626 0.000000 -0.000000 0.000000 -13.111588 -9.916781 -20.066192 12.737018 1.482184 35.194037 7.217227 7.000925 -10.106090 0.000000 -0.000000 0.000000 -3.915134 1.871083 6.877163 0.215542 -4.561994 24.678492 -2.527238 2.350484 -12.463525 -10.132572 -12.637093 22.878535 14.539161 -8.881431 -3.518580 -18.298849 -31.641806 8.995693 -66.006798 -37.755131 38.196302 -10.729006 -24.877581 25.991017 -21.212442 -9.921493 21.471585 5.224131 22.368066 7.853044 21.623316 17.771610 -7.498317 -12.911862 13.926711 -14.655222 8.263663 10.031396 -3.986902 
0.382045 0.234169 0.964549 60.581826 2.993215 86.203752 6.824961 9.307386 -4.758284 -5.967604 4.683402 30.645241 1.388809 14.339902 -21.537153 0.000000 -0.000000 0.000000 -13.192709 -10.206037 -20.154003 12.871607 1.319532 35.123020 7.775917 7.139951 -8.819718 0.000000 -0.000000 0.000000 -4.141449 1.723502 7.062685 -0.102164 -4.501269 23.795570 -2.630026 2.114264 -11.809985 -10.060472 -13.501165 24.205556 15.458191 -8.672628 -4.289175 -18.333160 -31.898723 8.841062 -66.610475 -38.031490 38.941206 -10.686548 -27.828832 26.458655 -22.217482 -10.025908 21.704531 3.575466 21.797819 6.981072 20.225135 16.827484 -8.497190 -13.632396 13.647502 -15.130192 10.834858 9.760498 -4.638430 
0.382435 0.237437 0.965604 59.240386 2.988482 85.741501 6.775769 9.765523 -3.840315 -5.918079 5.440896 29.997580 1.504837 14.413775 -21.816895 0.000000 -0.000000 0.000000 -13.297126 -10.565300 -20.248816 12.969696 0.991746 35.174237 8.268824 7.192873 -7.733276 0.000000 -0.000000 0.000000 -4.470908 1.658346 6.991892 -0.335902 -4.417790 23.333135 -2.727676 1.925404 -11.282301 -9.786007 -14.219206 25.370658 16.462111 -8.741704 -5.118806 -18.350898 -32.294727 8.666643 -67.030868 -38.423640 39.623841 -10.795368 -31.015178 27.087549 -22.926408 -10.321742 21.815549 2.137945 21.473997 6.196656 18.899937 15.758659 -9.268369 -14.393219 13.331657 -15.588049 12.429046 9.789938 -4.573130 
